<?xml version="1.1" encoding="windows-1252"?>
<svg xmlns="http://www.w3.org/2000/svg"
    xmlns:latexdraw="http://latexdraw.sourceforge.net/namespaces/latexdraw"
    version="1.1" baseProfile="full">
    <g>
        <g latexdraw:type="joinedLines" id="id14487014">
            <polyline points="220.0,240.0 580.0,240.0 "
                stroke-width="2.0" stroke="black" latexdraw:rotationAngle="0.0"/>
        </g>
        <g latexdraw:type="text" id="id16113627" fill="black" latexdraw:position="bl">
            <text x="588.4848484848485" y="247.27272727272725">$\mathcal{H}$</text>
        </g>
        <g latexdraw:type="dot" id="id17364559" latexdraw:size="6.0"
            latexdraw:dotShape="*" latexdraw:position="460.0 240.0">
            <path
                d="M 462.7692307692308 240.0 C 462.7692307692308 241.52940392260834 461.52940392260837 242.76923076923077 460.0 242.76923076923077 C 458.47059607739163 242.76923076923077 457.2307692307692 241.52940392260834 457.2307692307692 240.0 C 457.2307692307692 238.47059607739163 458.47059607739163 237.23076923076923 460.0 237.23076923076923 C 461.52940392260837 237.23076923076923 462.7692307692308 238.47059607739163 462.7692307692308 240.0 z "
                fill="black" stroke-linecap="square"
                stroke-linejoin="butt" stroke-width="0.375"
                stroke-miterlimit="10.0" stroke-dashoffset="0.0" stroke="black"/>
        </g>
        <g latexdraw:type="dot" id="id15752555" latexdraw:size="6.0"
            latexdraw:dotShape="*" latexdraw:position="380.0 140.0">
            <path
                d="M 382.7692307692308 140.0 C 382.7692307692308 141.52940392260834 381.52940392260837 142.76923076923077 380.0 142.76923076923077 C 378.47059607739163 142.76923076923077 377.2307692307692 141.52940392260834 377.2307692307692 140.0 C 377.2307692307692 138.47059607739163 378.47059607739163 137.23076923076923 380.0 137.23076923076923 C 381.52940392260837 137.23076923076923 382.7692307692308 138.47059607739163 382.7692307692308 140.0 z "
                fill="black" stroke-linecap="square"
                stroke-linejoin="butt" stroke-width="0.375"
                stroke-miterlimit="10.0" stroke-dashoffset="0.0" stroke="black"/>
        </g>
        <g latexdraw:type="dot" id="id14194344" latexdraw:size="6.0"
            latexdraw:dotShape="*" latexdraw:position="380.0 340.0">
            <path
                d="M 382.7692307692308 340.0 C 382.7692307692308 341.52940392260837 381.52940392260837 342.7692307692308 380.0 342.7692307692308 C 378.47059607739163 342.7692307692308 377.2307692307692 341.52940392260837 377.2307692307692 340.0 C 377.2307692307692 338.47059607739163 378.47059607739163 337.2307692307692 380.0 337.2307692307692 C 381.52940392260837 337.2307692307692 382.7692307692308 338.47059607739163 382.7692307692308 340.0 z "
                fill="black" stroke-linecap="square"
                stroke-linejoin="butt" stroke-width="0.375"
                stroke-miterlimit="10.0" stroke-dashoffset="0.0" stroke="black"/>
        </g>
        <g latexdraw:type="text" id="id5186906" fill="black" latexdraw:position="bl">
            <text x="360.0" y="140.0">$x$</text>
        </g>
        <g latexdraw:type="text" id="id30820620" fill="black" latexdraw:position="bl">
            <text x="366.060606060606" y="334.54545454545473">$\hat{x}$</text>
        </g>
        <g latexdraw:type="bezierCurve" id="id31737005">
            <path
                d="M 382.0 142.0 C 358.7996502664727 97.70842323599334 361.29213619392374 158.28214655893132 405.0 134.0 C 448.70786380607615 109.71785344106871 395.25954536860024 82.22522637030215 400.0 132.0 C 404.74045463139976 181.77477362969785 362.70842323599146 131.7996502664717 407.0 155.0 C 451.29157676400865 178.20034973352836 415.7368215524808 81.51766765997522 421.0 143.0 C 426.2631784475192 204.48233234002478 377.8678937696809 192.0700253468103 421.57575757575756 167.78787878787875 C 465.2836213818341 143.5057322289473 427.6969087181942 196.10397450517885 458.3939393939394 156.63636363636354 C 489.09097006968443 117.16875276754834 440.82566560114105 101.07990771317242 437.9999999999999 151.00000000000006 C 435.17433439885866 200.9200922868277 425.80228729440233 137.05097901313138 436.0 186.0 C 446.19771270559744 234.9490209868677 441.5612038692799 138.03160734013738 462.9999999999999 183.4848484848485 C 484.4387961307199 228.9380896295596 455.21994936526784 160.6803038083931 447.0 210.0 C 438.78005063473216 259.3196961916069 417.5472047953543 159.37453377425174 438.0 205.0 C 458.45279520464567 250.62546622574826 462.9151616384656 210.91592047963732 460.0 239.0 "
                stroke-width="2.0" stroke="red" fill="none" latexdraw:rotationAngle="0.0"/>
        </g>
        <g latexdraw:type="bezierCurve" id="id7529443">
            <path
                d="M 381.69696969696975 337.78787878787875 C 358.49661996344247 382.0794555518854 360.9891058908935 321.5057322289474 404.69696969696975 345.78787878787875 C 448.4048335030459 370.07002534681004 394.95651506557 397.5626524175766 399.69696969696975 347.78787878787875 C 404.4374243283695 298.0131051581809 362.4053929329612 347.98822852140705 406.69696969696975 324.78787878787875 C 450.9885464609784 301.5875290543504 415.43379124945056 398.2702111279035 420.69696969696975 336.78787878787875 C 425.9601481444889 275.305546447854 377.56486346665065 287.7178534410684 421.2727272727273 312.0 C 464.98059107880385 336.28214655893146 427.39387841516395 283.6839042826999 458.0909090909091 323.15151515151524 C 488.7879397666542 362.61912602033044 440.5226352981108 378.70797107470634 437.69696969696963 328.7878787878787 C 434.8713040958284 278.86778650105106 425.4992569913721 342.73689977474737 435.69696969696975 293.78787878787875 C 445.8946824025672 244.83885780101105 441.25817356624964 341.75627144774137 462.69696969696963 296.30303030303025 C 484.1357658276896 250.84978915831914 454.9169190622376 319.10757497948566 446.69696969696975 269.78787878787875 C 438.4770203317019 220.46818259627184 417.244174492324 320.413345013627 437.69696969696975 274.78787878787875 C 458.1497649016154 229.1624125621305 462.6121313354353 268.87195830824146 459.69696969696975 240.78787878787875 "
                stroke-width="2.0" stroke="#00cc00" fill="none" latexdraw:rotationAngle="0.0"/>
        </g>
        <g latexdraw:type="bezierCurve" id="id27680849">
            <path
                d="M 458.1818181818183 238.1818181818182 C 417.74484573921035 262.3196454775558 415.9613996653881 227.4765511805395 380.60606060606074 192.12121212121212 C 345.25072154673336 156.76587306188475 390.5069560663754 176.23833483079684 415.7575757575758 219.3939393939394 C 441.00819544877623 262.5495439570823 467.6597998152351 216.55134041811036 413.93939393939405 249.0909090909091 C 360.218988063553 281.63047776370786 430.7314067265777 264.1748559489671 390.90909090909105 233.93939393939397 C 351.0867750916044 203.70393192982084 364.97247170787455 249.28455921848087 381.2121212121213 224.24242424242425 C 397.45177071636806 199.20028926636763 398.3904419809919 206.70747708228015 348.4848484848485 203.63636363636365 C 298.5792549887051 200.56525019044716 391.0116773231771 230.76245372818107 341.8181818181819 221.81818181818184 C 292.62468631318677 212.8739099081826 368.86012433558693 184.61268309888015 319.3939393939395 198.1818181818182 C 269.92775445229205 211.75095326475622 314.7440783900776 257.88846119105824 299.3939393939395 210.3030303030303 C 284.0438003978014 162.7175994150026 342.0793177315296 160.33946262371776 313.3333333333334 179.3939393939394 C 284.58734893513724 198.44841616416105 304.8100964126666 203.78610569952582 258.7878787878789 184.24242424242425 C 212.76566116309115 164.69874278532262 321.416718145943 153.49976442890951 274.5454545454547 170.9090909090909 C 227.67419094496637 188.31841738927233 285.44898456873835 206.54875998211043 237.57575757575768 192.12121212121212 C 189.7025305827769 177.69366426031382 207.41909473211666 148.56868877690212 199.3939393939394 145.45454545454547 "
                stroke-width="2.0" stroke="#ff9933" fill="none" latexdraw:rotationAngle="0.0"/>
        </g>
        <g latexdraw:type="text" id="id2509634" fill="black" latexdraw:position="bl">
            <text x="467.27272727272737" y="236.96969696969708">$B_T$</text>
        </g>
        <g latexdraw:type="text" id="id4557614" fill="#33cc00" latexdraw:position="bl">
            <text x="479.3939393939393" y="316.3636363636364">$\sigma(B_{[0,T]})$</text>
        </g>
    </g>
    <defs/>
    <metadata>
        <latexdraw:metadata>
            <latexdraw:latexIncludes>\usepackage{amssymb}&#xd;
</latexdraw:latexIncludes>
            <latexdraw:displayXScale>true</latexdraw:displayXScale>
            <latexdraw:displayYScale>true</latexdraw:displayYScale>
            <latexdraw:unit>CM</latexdraw:unit>
            <latexdraw:zoom>1.65</latexdraw:zoom>
            <latexdraw:magneticGridStyle>CUSTOMISED</latexdraw:magneticGridStyle>
            <latexdraw:gridGap>20</latexdraw:gridGap>
            <latexdraw:magneticGrid>false</latexdraw:magneticGrid>
            <latexdraw:version>3.3.8</latexdraw:version>
            <latexdraw:size>
                <latexdraw:width>1034</latexdraw:width>
                <latexdraw:height>827</latexdraw:height>
            </latexdraw:size>
            <latexdraw:position>
                <latexdraw:x>44.0</latexdraw:x>
                <latexdraw:y>122.0</latexdraw:y>
            </latexdraw:position>
        </latexdraw:metadata>
    </metadata>
</svg>
