<?xml version="1.1" encoding="windows-1252"?>
<svg xmlns="http://www.w3.org/2000/svg"
    xmlns:latexdraw="http://latexdraw.sourceforge.net/namespaces/latexdraw"
    version="1.1" baseProfile="full">
    <g>
        <g latexdraw:type="bezierCurve" id="id22295598">
            <path
                d="M 500.0 160.0 C 450.07698233972957 162.77350098112606 325.3979692250227 119.04709112691276 280.0 140.0 C 234.60203077497732 160.95290887308727 195.1930530821583 236.587842893777 220.0 280.0 C 244.80694691784169 323.41215710622293 351.329141583321 288.5480333137225 400.0 300.0 C 448.6708584166791 311.4519666862775 556.587842893778 384.80694691784095 600.0 360.0 C 643.412157106222 335.1930530821591 698.5695338177052 186.42383454426295 680.0 140.0 C 661.4304661822948 93.57616545573705 549.9230176602705 157.22649901887394 500.0 160.0 z "
                stroke-width="2.0" stroke="black" fill="none" latexdraw:rotationAngle="0.0"/>
        </g>
        <g latexdraw:type="dot" id="id15090754" latexdraw:size="6.0"
            latexdraw:dotShape="*" latexdraw:position="520.0 260.0">
            <path
                d="M 522.7692307692308 260.0 C 522.7692307692308 261.52940392260837 521.5294039226084 262.7692307692308 520.0 262.7692307692308 C 518.4705960773917 262.7692307692308 517.2307692307693 261.52940392260837 517.2307692307693 260.0 C 517.2307692307693 258.47059607739163 518.4705960773917 257.2307692307692 520.0 257.2307692307692 C 521.5294039226084 257.2307692307692 522.7692307692308 258.47059607739163 522.7692307692308 260.0 z "
                fill="black" stroke-linecap="square"
                stroke-linejoin="butt" stroke-width="0.375"
                stroke-miterlimit="10.0" stroke-dashoffset="0.0" stroke="black"/>
        </g>
        <g latexdraw:type="text" id="id15240050" fill="black" latexdraw:position="bl">
            <text x="217.69230769230808" y="355.3846153846155">$d(x, \partial D) = \inf \{d(x,y) : y \in \partial D \}$</text>
        </g>
        <g latexdraw:type="text" id="id27314597" fill="black" latexdraw:position="bl">
            <text x="533.0" y="278.0">$x=B_0$</text>
        </g>
        <g latexdraw:type="joinedLines" id="id28451873">
            <polyline points="520.0,260.0 482.0,334.0 "
                stroke-width="2.0" stroke="black"
                latexdraw:rotationAngle="0.0" marker-end="url(#arrow1-28451873)"/>
        </g>
        <g latexdraw:type="text" id="id14651524" fill="black" latexdraw:position="bl">
            <text x="508.0" y="306.0">$r_0$</text>
        </g>
        <g latexdraw:type="circle" id="id19565384">
            <circle cx="518.0" cy="262.0" r="81.0"
                latexdraw:borderPos="outer" stroke-width="2.0"
                stroke="black" fill="none"/>
        </g>
        <g latexdraw:type="text" id="id13205278" fill="black" latexdraw:position="bl">
            <text x="640.0" y="160.0">$D$</text>
        </g>
        <g latexdraw:type="bezierCurve" id="id74235">
            <path
                d="M 517.0 257.0 C 562.7321577173316 277.21310838335097 530.0 231.0 480.0 231.0 C 430.0 231.0 495.0 307.0 495.0 257.0 C 495.0 207.0 501.8984711639845 238.94949344186307 480.0 194.0 C 458.1015288360155 149.05050655813704 523.1617669581951 201.3937440288046 476.0 218.0 C 428.83823304180476 234.60625597119542 458.22812538929503 227.75166673587464 409.0 219.0 C 359.77187461070486 210.24833326412534 425.67334381828505 160.28454230399393 431.0 210.0 C 436.3266561817149 259.7154576960056 450.1254567686393 214.65112759024515 412.0 247.0 C 373.8745432313607 279.34887240975485 387.86971979820373 189.03697902465137 398.0 238.0 C 408.13028020179627 286.9630209753484 466.4246466298421 263.5479480094692 418.0 276.0 C 369.5753533701578 288.4520519905308 410.2100090722889 263.46860781591477 363.0 247.0 C 315.78999092771113 230.53139218408526 285.816819849907 276.08709557974 332.0 246.0 C 378.183180150093 215.91290442026002 298.2786404500042 213.3606797749979 343.0 191.0 C 387.7213595499958 168.6393202250021 297.96485278172213 262.2022912230882 358.0 233.0 C 418.03514721827787 203.7977087769118 409.83369402144314 181.55808078913486 362.0 167.0 C 314.1663059785569 152.44191921086517 338.70153386740657 206.5449535999188 289.0 212.0 C 239.2984661325934 217.45504640008122 295.11891430775904 219.90262892414376 280.0 176.0 C 264.88108569224096 132.09737107585624 251.14229298996304 229.7862314258671 288.0 196.0 C 324.85770701003696 162.21376857413293 267.2034494119087 187.85282654104398 304.0 154.0 C 340.7965505880913 120.1471734589561 355.8746462856274 198.72478777137647 313.0 173.0 C 270.12535371437264 147.2752122286236 277.76609507626426 153.96250973728547 261.0 151.0 "
                stroke-width="2.0" stroke="#ff9966" fill="none" latexdraw:rotationAngle="0.0"/>
        </g>
        <g latexdraw:type="dot" id="id3323203" latexdraw:size="6.0"
            latexdraw:dotShape="*" latexdraw:position="262.0 151.0">
            <path
                d="M 264.7692307692308 151.0 C 264.7692307692308 152.52940392260834 263.52940392260837 153.76923076923077 262.0 153.76923076923077 C 260.47059607739163 153.76923076923077 259.2307692307692 152.52940392260834 259.2307692307692 151.0 C 259.2307692307692 149.47059607739163 260.47059607739163 148.23076923076923 262.0 148.23076923076923 C 263.52940392260837 148.23076923076923 264.7692307692308 149.47059607739163 264.7692307692308 151.0 z "
                fill="black" stroke-linecap="square"
                stroke-linejoin="butt" stroke-width="0.375"
                stroke-miterlimit="10.0" stroke-dashoffset="0.0" stroke="black"/>
        </g>
        <g latexdraw:type="text" id="id15645292" fill="black" latexdraw:position="bl">
            <text x="229.0" y="150.0">$B_T$</text>
        </g>
        <g latexdraw:type="circle" id="id9597711">
            <circle cx="484.3333333333335" cy="201.0" r="39.0"
                latexdraw:borderPos="outer" stroke-width="2.0"
                stroke="black" fill="none" stroke-linecap="round" stroke-dasharray="1, 7.291666666666667"/>
        </g>
        <g latexdraw:type="dot" id="id24409317" latexdraw:size="6.0"
            latexdraw:dotShape="*" latexdraw:position="484.3333333333335 202.0">
            <path
                d="M 487.10256410256426 202.0 C 487.10256410256426 203.52940392260834 485.86273725594185 204.76923076923077 484.3333333333335 204.76923076923077 C 482.8039294107251 204.76923076923077 481.5641025641027 203.52940392260834 481.5641025641027 202.0 C 481.5641025641027 200.47059607739163 482.8039294107251 199.23076923076923 484.3333333333335 199.23076923076923 C 485.86273725594185 199.23076923076923 487.10256410256426 200.47059607739163 487.10256410256426 202.0 z "
                fill="black" stroke-linecap="square"
                stroke-linejoin="butt" stroke-width="0.375"
                stroke-miterlimit="10.0" stroke-dashoffset="0.0" stroke="black"/>
        </g>
        <g latexdraw:type="text" id="id31090139" fill="black" latexdraw:position="bl">
            <text x="489.9999999999997" y="211.99999999999986">$B_{T_1}$</text>
        </g>
        <g latexdraw:type="joinedLines" id="id24134772">
            <polyline
                points="484.0,200.66666666666666 482.6666666666667,162.0 "
                stroke-width="2.0" stroke="black"
                latexdraw:rotationAngle="0.0" marker-end="url(#arrow1-24134772)"/>
        </g>
        <g latexdraw:type="text" id="id33110916" fill="black" latexdraw:position="bl">
            <text x="466.0" y="189.3333333333334">$r_1$</text>
        </g>
        <g latexdraw:type="circle" id="id14765386">
            <circle cx="395.33333333333314" cy="278.66666666666663"
                r="19.000000000000114" latexdraw:borderPos="outer"
                stroke-width="2.0" stroke="#999999" fill="none"
                stroke-linecap="round" stroke-dasharray="1, 7.291666666666667"/>
        </g>
        <g latexdraw:type="dot" id="id27498916"
            latexdraw:size="5.999999999999972" latexdraw:dotShape="*" latexdraw:position="395.08108108108104 278.7927927927927">
            <path
                d="M 397.85031185031175 278.7927927927927 C 397.85031185031175 280.322196715401 396.61048500368935 281.5620235620234 395.08108108108104 281.5620235620234 C 393.55167715847267 281.5620235620234 392.31185031185026 280.322196715401 392.31185031185026 278.7927927927927 C 392.31185031185026 277.2633888701843 393.55167715847267 276.0235620235619 395.08108108108104 276.0235620235619 C 396.61048500368935 276.0235620235619 397.85031185031175 277.2633888701843 397.85031185031175 278.7927927927927 z "
                fill="black" stroke-linecap="square"
                stroke-linejoin="butt" stroke-width="0.375"
                stroke-miterlimit="10.0" stroke-dashoffset="0.0" stroke="black"/>
        </g>
        <g latexdraw:type="joinedLines" id="id27490162">
            <polyline
                points="395.1351351351351,278.9189189189189 392.97297297297297,299.4594594594594 "
                stroke-width="2.0" stroke="black"
                latexdraw:rotationAngle="0.0" marker-end="url(#arrow1-27490162)"/>
        </g>
        <g latexdraw:type="text" id="id2416213" fill="black" latexdraw:position="bl">
            <text x="379.4594594594595" y="274.05405405405395">$B_{T_2}$</text>
        </g>
        <g latexdraw:type="dot" id="id12685443" latexdraw:size="6.0"
            latexdraw:dotShape="*" latexdraw:position="274.5945945945946 152.97297297297297">
            <path
                d="M 277.36382536382536 152.97297297297297 C 277.36382536382536 154.5023768955813 276.12399851720295 155.74220374220374 274.5945945945946 155.74220374220374 C 273.0651906719862 155.74220374220374 271.8253638253638 154.5023768955813 271.8253638253638 152.97297297297297 C 271.8253638253638 151.4435690503646 273.0651906719862 150.2037422037422 274.5945945945946 150.2037422037422 C 276.12399851720295 150.2037422037422 277.36382536382536 151.4435690503646 277.36382536382536 152.97297297297297 z "
                fill="black" stroke-linecap="square"
                stroke-linejoin="butt" stroke-width="0.375"
                stroke-miterlimit="10.0" stroke-dashoffset="0.0" stroke="black"/>
        </g>
        <g latexdraw:type="text" id="id11137528" fill="black" latexdraw:position="bl">
            <text x="278.6216216216217" y="159.8378378378378">$B_{T_3}$</text>
        </g>
        <g latexdraw:type="text" id="id9966096" fill="black" latexdraw:position="bl">
            <text x="397.29729729729723" y="293.51351351351343">$r_2$</text>
        </g>
    </g>
    <defs>
        <marker overflow="visible" orient="auto" id="arrow1-28451873">
            <path
                d="M 0.0 0.0 L -4.652083333333334 1.6614583333333335 L -4.652083333333334 0.0 L -4.652083333333334 -1.6614583333333335 z "
                latexdraw:arrSizeNum="2.0" fill="black"/>
        </marker>
        <marker overflow="visible" orient="auto" id="arrow1-24134772">
            <path
                d="M 0.0 0.0 L -4.652083333333334 1.6614583333333335 L -4.652083333333334 0.0 L -4.652083333333334 -1.6614583333333335 z "
                latexdraw:arrSizeNum="2.0" fill="black"/>
        </marker>
        <marker overflow="visible" orient="auto" id="arrow1-27490162">
            <path
                d="M 0.0 0.0 L -4.652083333333334 1.6614583333333335 L -4.652083333333334 0.0 L -4.652083333333334 -1.6614583333333335 z "
                latexdraw:arrSizeNum="2.0" fill="black"/>
        </marker>
    </defs>
    <metadata>
        <latexdraw:metadata>
            <latexdraw:latexIncludes>\usepackage{amssymb}&#xd;
</latexdraw:latexIncludes>
            <latexdraw:displayXScale>true</latexdraw:displayXScale>
            <latexdraw:displayYScale>true</latexdraw:displayYScale>
            <latexdraw:unit>CM</latexdraw:unit>
            <latexdraw:zoom>1.3</latexdraw:zoom>
            <latexdraw:magneticGridStyle>CUSTOMISED</latexdraw:magneticGridStyle>
            <latexdraw:gridGap>20</latexdraw:gridGap>
            <latexdraw:magneticGrid>false</latexdraw:magneticGrid>
            <latexdraw:version>3.3.8</latexdraw:version>
            <latexdraw:size>
                <latexdraw:width>1034</latexdraw:width>
                <latexdraw:height>827</latexdraw:height>
            </latexdraw:size>
            <latexdraw:position>
                <latexdraw:x>44.0</latexdraw:x>
                <latexdraw:y>122.0</latexdraw:y>
            </latexdraw:position>
        </latexdraw:metadata>
    </metadata>
</svg>
