<?xml version="1.1" encoding="windows-1252"?>
<svg xmlns="http://www.w3.org/2000/svg"
    xmlns:latexdraw="http://latexdraw.sourceforge.net/namespaces/latexdraw"
    version="1.1" baseProfile="full">
    <g>
        <g latexdraw:type="joinedLines" id="id22380303">
            <polyline points="120.0,300.0 400.0,300.0 "
                stroke-width="2.0" stroke="black"
                latexdraw:rotationAngle="0.0" marker-end="url(#arrow1-22380303)"/>
        </g>
        <g latexdraw:type="joinedLines" id="id21109917">
            <polyline points="140.0,340.0 140.0,160.0 "
                stroke-width="2.0" stroke="black"
                latexdraw:rotationAngle="0.0" marker-end="url(#arrow1-21109917)"/>
        </g>
        <g latexdraw:type="joinedLines" id="id23496732">
            <polyline points="500.0,300.0 780.0,300.0 "
                stroke-width="2.0" stroke="black"
                latexdraw:rotationAngle="0.0" marker-end="url(#arrow1-23496732)"/>
        </g>
        <g latexdraw:type="joinedLines" id="id20602471">
            <polyline points="520.0,340.0 520.0,160.0 "
                stroke-width="2.0" stroke="black"
                latexdraw:rotationAngle="0.0" marker-end="url(#arrow1-20602471)"/>
        </g>
        <g latexdraw:type="joinedLines" id="id28688615">
            <polyline points="340.0,300.0 340.0,200.0 "
                stroke-width="2.0" stroke="#ff6600"
                stroke-linecap="round"
                stroke-dasharray="1, 7.291666666666667" latexdraw:rotationAngle="0.0"/>
        </g>
        <g latexdraw:type="joinedLines" id="id27205423">
            <polyline points="660.0,300.0 660.0,200.0 "
                stroke-width="2.0" stroke="#ff6600"
                stroke-linecap="round"
                stroke-dasharray="1, 7.291666666666667" latexdraw:rotationAngle="0.0"/>
        </g>
        <g latexdraw:type="joinedLines" id="id16568259">
            <polyline
                points="140.0,300.0 145.0,282.0 147.0,294.0 152.0,268.0 154.0,291.0 157.0,268.0 158.0,288.0 163.0,255.0 164.0,321.0 168.0,305.0 169.0,330.0 173.0,306.0 175.0,324.0 181.0,280.0 183.0,289.0 190.0,241.0 191.0,271.0 197.0,232.0 199.0,262.0 204.0,247.0 205.0,288.0 209.0,260.0 210.0,283.0 216.0,253.0 252.0,253.0 254.0,282.0 257.0,239.0 260.0,314.0 263.0,278.0 265.0,324.0 270.0,254.0 271.0,283.0 276.0,232.0 278.0,277.0 282.0,241.0 285.0,279.0 288.0,222.0 290.0,259.0 293.0,205.0 297.0,243.0 302.0,195.0 306.0,234.0 308.0,199.0 309.0,233.0 314.0,199.0 363.0,199.0 364.0,252.0 368.0,193.0 369.0,289.0 373.0,211.0 375.0,241.0 378.0,198.0 382.0,245.0 387.0,181.0 389.0,237.0 "
                stroke-width="2.0" stroke="black" fill="none" latexdraw:rotationAngle="0.0"/>
        </g>
        <g latexdraw:type="joinedLines" id="id11226343">
            <polyline
                points="520.0,299.0 527.0,271.0 528.0,293.0 534.0,252.0 536.0,316.0 541.0,281.0 545.0,318.0 550.0,259.0 552.0,292.0 557.0,239.0 561.0,323.0 565.0,255.0 568.0,286.0 575.0,235.0 576.0,260.0 582.0,224.0 584.0,290.0 589.0,243.0 593.0,286.0 599.0,230.0 601.0,265.0 606.0,205.0 609.0,310.0 614.0,259.0 618.0,310.0 622.0,239.0 624.0,277.0 630.0,215.0 632.0,259.0 636.0,210.0 640.0,244.0 648.0,179.0 650.0,206.0 654.0,178.0 655.0,221.0 660.3333333333334,204.0 665.0,216.0 669.6666666666666,197.66666666666666 675.0,238.33333333333334 680.0,190.66666666666666 682.0,256.0 688.0,218.0 688.0,314.0 693.0,215.0 696.0,254.0 701.0,202.0 704.0,258.0 707.0,216.0 710.0,307.0 713.0,234.0 715.0,276.0 719.0,222.0 722.0,275.0 725.0,223.0 728.0,261.0 732.0,228.0 734.0,274.0 737.0,239.0 741.0,285.0 744.0,242.0 746.0,291.0 754.0,193.0 756.0,243.0 762.0,212.0 765.0,279.0 769.0,228.0 "
                stroke-width="2.0" stroke="black" fill="none" latexdraw:rotationAngle="0.0"/>
        </g>
        <g latexdraw:type="text" id="id22547915" fill="#ff6600" latexdraw:position="bl">
            <text x="338.0" y="318.0">$t$</text>
        </g>
        <g latexdraw:type="text" id="id19606968" fill="black" latexdraw:position="bl">
            <text x="151.0" y="183.0">$M$</text>
        </g>
        <g latexdraw:type="text" id="id16802350" fill="black" latexdraw:position="bl">
            <text x="533.0" y="184.0">$B$</text>
        </g>
        <g latexdraw:type="text" id="id24714086" fill="#ff6600" latexdraw:position="bl">
            <text x="654.0" y="322.0">$A_t$</text>
        </g>
        <g latexdraw:type="text" id="id14726025" fill="#ff9933" latexdraw:position="bl">
            <text x="668.0" y="184.66666666666666">$B_{A_t}=M_t$</text>
        </g>
        <g latexdraw:type="text" id="id2819271" fill="black" latexdraw:position="bl">
            <text x="331.3333333333333" y="188.66666666666652">$M_t$</text>
        </g>
        <g latexdraw:type="dot" id="id27811337" latexdraw:size="6.0"
            latexdraw:dotShape="*" latexdraw:position="660.0 201.33333333333334">
            <path
                d="M 662.7692307692308 201.33333333333334 C 662.7692307692308 202.86273725594168 661.5294039226084 204.10256410256412 660.0 204.10256410256412 C 658.4705960773917 204.10256410256412 657.2307692307693 202.86273725594168 657.2307692307693 201.33333333333334 C 657.2307692307693 199.80392941072498 658.4705960773917 198.56410256410257 660.0 198.56410256410257 C 661.5294039226084 198.56410256410257 662.7692307692308 199.80392941072498 662.7692307692308 201.33333333333334 z "
                fill="#ff9933" stroke-linecap="square"
                stroke-linejoin="butt" stroke-width="0.375"
                stroke-miterlimit="10.0" stroke-dashoffset="0.0" stroke="#ff9933"/>
        </g>
    </g>
    <defs>
        <marker overflow="visible" orient="auto" id="arrow1-22380303">
            <path
                d="M 0.0 0.0 L -4.652083333333334 1.6614583333333335 L -4.652083333333334 0.0 L -4.652083333333334 -1.6614583333333335 z "
                latexdraw:arrSizeNum="2.0" fill="black"/>
        </marker>
        <marker overflow="visible" orient="auto" id="arrow1-21109917">
            <path
                d="M 0.0 0.0 L -4.652083333333334 1.6614583333333335 L -4.652083333333334 0.0 L -4.652083333333334 -1.6614583333333335 z "
                latexdraw:arrSizeNum="2.0" fill="black"/>
        </marker>
        <marker overflow="visible" orient="auto" id="arrow1-23496732">
            <path
                d="M 0.0 0.0 L -4.652083333333334 1.6614583333333335 L -4.652083333333334 0.0 L -4.652083333333334 -1.6614583333333335 z "
                latexdraw:arrSizeNum="2.0" fill="black"/>
        </marker>
        <marker overflow="visible" orient="auto" id="arrow1-20602471">
            <path
                d="M 0.0 0.0 L -4.652083333333334 1.6614583333333335 L -4.652083333333334 0.0 L -4.652083333333334 -1.6614583333333335 z "
                latexdraw:arrSizeNum="2.0" fill="black"/>
        </marker>
    </defs>
    <metadata>
        <latexdraw:metadata>
            <latexdraw:latexIncludes>\usepackage{amssymb}&#xd;
</latexdraw:latexIncludes>
            <latexdraw:displayXScale>true</latexdraw:displayXScale>
            <latexdraw:displayYScale>true</latexdraw:displayYScale>
            <latexdraw:unit>CM</latexdraw:unit>
            <latexdraw:zoom>1.5</latexdraw:zoom>
            <latexdraw:magneticGridStyle>CUSTOMISED</latexdraw:magneticGridStyle>
            <latexdraw:gridGap>20</latexdraw:gridGap>
            <latexdraw:magneticGrid>false</latexdraw:magneticGrid>
            <latexdraw:version>3.3.8</latexdraw:version>
            <latexdraw:size>
                <latexdraw:width>1034</latexdraw:width>
                <latexdraw:height>827</latexdraw:height>
            </latexdraw:size>
            <latexdraw:position>
                <latexdraw:x>187.0</latexdraw:x>
                <latexdraw:y>121.0</latexdraw:y>
            </latexdraw:position>
        </latexdraw:metadata>
    </metadata>
</svg>
